<svg width="97" height="96" viewBox="0 0 97 96" fill="none" xmlns="http://www.w3.org/2000/svg">
<rect x="0.148705" width="95.8934" height="95.8934" rx="27.9689" fill="#1F1D2B"/>
<path d="M73.0626 36.9642H64.9316C66.6905 40.0117 67.3944 43.5545 66.9343 47.0429C66.4742 50.5314 64.8758 53.7705 62.3869 56.2577C60.2593 58.4278 57.4899 60.4831 54.4333 62.3784C54.242 62.4949 54.0171 62.5437 53.7947 62.517C53.5724 62.4902 53.3654 62.3896 53.2071 62.2311L44.5068 53.5308C44.3176 53.3415 44.0922 53.1921 43.8441 53.0916C43.596 52.9911 43.3303 52.9415 43.0626 52.9456C42.795 52.9498 42.5309 53.0078 42.2861 53.116C42.0413 53.2243 41.8207 53.3806 41.6375 53.5757C41.2849 53.9713 41.0988 54.4877 41.1179 55.0172C41.1369 55.5467 41.3598 56.0484 41.7399 56.4176L49.2016 63.8793C49.3131 63.9905 49.3966 64.1266 49.4455 64.2763C49.4944 64.426 49.5072 64.5851 49.4828 64.7407C49.4585 64.8963 49.3977 65.0439 49.3054 65.1715C49.2131 65.2991 49.092 65.4031 48.9519 65.475C39.0354 70.6243 28.3623 74.058 26.809 74.5424C26.0659 74.8886 25.2344 74.9978 24.4272 74.8553C23.6199 74.7129 22.876 74.3255 22.2964 73.7459C21.7168 73.1663 21.3295 72.4224 21.187 71.6151C21.0445 70.8079 21.1537 69.9764 21.4999 69.2333C22.1816 67.0582 28.7418 46.6909 37.6969 35.9328C37.7859 35.8264 37.8961 35.7396 38.0204 35.6781C38.1448 35.6166 38.2806 35.5817 38.4193 35.5756C38.5579 35.5695 38.6962 35.5923 38.8255 35.6427C38.9548 35.693 39.0722 35.7697 39.1702 35.8679L49.6711 46.3712C49.8653 46.5653 50.0975 46.7173 50.3531 46.8177C50.6086 46.9181 50.8822 46.9647 51.1566 46.9546C51.431 46.9445 51.7004 46.878 51.9479 46.7591C52.1955 46.6403 52.4159 46.4717 52.5953 46.2639C52.9236 45.8677 53.0905 45.3623 53.0627 44.8486C53.0349 44.3348 52.8145 43.8504 52.4455 43.4919L42.117 33.1634C42.0117 33.0585 41.9311 32.9315 41.8811 32.7915C41.8311 32.6515 41.813 32.5022 41.8281 32.3543C41.8431 32.2064 41.891 32.0638 41.9682 31.9368C42.0454 31.8098 42.15 31.7016 42.2743 31.6201C44.7521 29.9846 47.6364 29.0715 50.604 28.9833C53.5716 28.8951 56.5051 29.6352 59.0756 31.1207V22.9797C59.075 22.7056 59.1308 22.4343 59.2395 22.1827C59.3482 21.9311 59.5076 21.7046 59.7076 21.5172C59.9076 21.3298 60.1441 21.1856 60.4023 21.0935C60.6604 21.0014 60.9348 20.9634 61.2083 20.9819C61.7231 21.0267 62.2018 21.265 62.5479 21.6487C62.8941 22.0323 63.0819 22.533 63.0737 23.0496V30.1443L69.6514 23.5641C69.837 23.3785 70.0573 23.2312 70.2999 23.1308C70.5424 23.0303 70.8023 22.9786 71.0648 22.9786C71.3273 22.9786 71.5872 23.0303 71.8297 23.1308C72.0723 23.2312 72.2926 23.3785 72.4782 23.5641C72.6638 23.7497 72.8111 23.97 72.9115 24.2126C73.012 24.4551 73.0637 24.715 73.0637 24.9775C73.0637 25.24 73.012 25.4999 72.9115 25.7424C72.8111 25.985 72.6638 26.2053 72.4782 26.3909L65.898 32.9686H72.9927C73.5094 32.9604 74.01 33.1482 74.3937 33.4944C74.7773 33.8405 75.0156 34.3192 75.0604 34.8341C75.0785 35.1073 75.0403 35.3814 74.948 35.6393C74.8558 35.8971 74.7115 36.1333 74.5242 36.3331C74.3368 36.5328 74.1104 36.6919 73.859 36.8005C73.6075 36.9091 73.3365 36.9648 73.0626 36.9642Z" fill="#F58700"/>
</svg>
