<svg width="257" height="48" viewBox="0 0 257 48" fill="none" xmlns="http://www.w3.org/2000/svg">
<path d="M0 46.9223V2.17203H9.7172L23.9734 30.5565L38.0377 2.17203H47.7549V46.9223H39.572V16.0446L27.1059 40.5294H20.6491L8.18291 16.0446V46.9223H0Z" fill="#1A1A1A"/>
<path d="M67.8167 47.6895C64.6202 47.6895 61.786 47.0075 59.3141 45.6437C56.8422 44.2799 54.903 42.362 53.4966 39.8901C52.0901 37.4182 51.3869 34.5627 51.3869 31.3236C51.3869 28.0419 52.0688 25.1225 53.4326 22.5654C54.8391 20.0082 56.7569 18.0264 59.1862 16.62C61.6582 15.1709 64.5563 14.4464 67.8806 14.4464C70.9918 14.4464 73.7407 15.1283 76.1274 16.4921C78.5141 17.8559 80.368 19.7312 81.6892 22.1179C83.0531 24.4619 83.735 27.083 83.735 29.9811C83.735 30.4499 83.7137 30.9401 83.671 31.4515C83.671 31.9629 83.6497 32.4957 83.6071 33.0497H59.5059C59.6764 35.5216 60.5288 37.4608 62.063 38.8673C63.64 40.2737 65.5365 40.9769 67.7527 40.9769C69.4149 40.9769 70.8 40.6146 71.9081 39.8901C73.0588 39.123 73.9112 38.1427 74.4653 36.9494H82.776C82.1794 38.9525 81.1778 40.7851 79.7714 42.4473C78.4076 44.0668 76.7028 45.3454 74.6571 46.283C72.6539 47.2206 70.3738 47.6895 67.8167 47.6895ZM67.8806 21.095C65.8775 21.095 64.1088 21.6704 62.5745 22.8211C61.0402 23.9292 60.0599 25.634 59.6337 27.9354H75.4242C75.2963 25.8471 74.5292 24.1849 73.1228 22.9489C71.7163 21.713 69.9689 21.095 67.8806 21.095Z" fill="#1A1A1A"/>
<path d="M97.7134 47.6895C94.9858 47.6895 92.7483 47.2633 91.0009 46.4109C89.2535 45.5159 87.9536 44.3438 87.1012 42.8948C86.2488 41.4457 85.8226 39.8475 85.8226 38.1001C85.8226 35.1594 86.9734 32.7727 89.2748 30.9401C91.5763 29.1074 95.0284 28.1911 99.6313 28.1911H107.686V27.424C107.686 25.2504 107.068 23.6522 105.832 22.6293C104.596 21.6064 103.062 21.095 101.23 21.095C99.5674 21.095 98.1183 21.4999 96.8824 22.3097C95.6464 23.0768 94.8793 24.2275 94.5809 25.7618H86.5898C86.8029 23.4604 87.57 21.4573 88.8912 19.7525C90.2551 18.0477 92.0024 16.7478 94.1334 15.8528C96.2644 14.9152 98.6511 14.4464 101.293 14.4464C105.811 14.4464 109.37 15.5758 111.97 17.8346C114.569 20.0934 115.869 23.2899 115.869 27.424V46.9223H108.901L108.134 41.808C107.196 43.5128 105.875 44.9192 104.17 46.0273C102.508 47.1354 100.356 47.6895 97.7134 47.6895ZM99.5674 41.2966C101.911 41.2966 103.723 40.5294 105.001 38.9951C106.323 37.4608 107.154 35.5643 107.495 33.3054H100.526C98.3527 33.3054 96.7971 33.7103 95.8595 34.5201C94.9219 35.2872 94.4531 36.2462 94.4531 37.3969C94.4531 38.6328 94.9219 39.5918 95.8595 40.2737C96.7971 40.9556 98.0331 41.2966 99.5674 41.2966Z" fill="#1A1A1A"/>
<path d="M119.842 46.9223V0.893448H128.025V46.9223H119.842Z" fill="#1A1A1A"/>
<path d="M146.679 46.9223C143.355 46.9223 140.691 46.1125 138.688 44.493C136.685 42.8735 135.683 39.9967 135.683 35.8626V22.0539H130.249V15.2135H135.683L136.642 6.71098H143.866V15.2135H152.433V22.0539H143.866V35.9265C143.866 37.4608 144.186 38.5263 144.825 39.123C145.507 39.677 146.658 39.954 148.277 39.954H152.241V46.9223H146.679Z" fill="#1A1A1A"/>
<path d="M160.034 10.291C158.542 10.291 157.306 9.8435 156.326 8.9485C155.388 8.05349 154.919 6.92408 154.919 5.56026C154.919 4.19644 155.388 3.08834 156.326 2.23595C157.306 1.34095 158.542 0.893448 160.034 0.893448C161.525 0.893448 162.74 1.34095 163.678 2.23595C164.658 3.08834 165.148 4.19644 165.148 5.56026C165.148 6.92408 164.658 8.05349 163.678 8.9485C162.74 9.8435 161.525 10.291 160.034 10.291ZM155.942 46.9223V15.2135H164.125V46.9223H155.942Z" fill="#1A1A1A"/>
<path d="M168.83 46.9223V15.2135H176.054L176.758 19.4968C177.78 17.9625 179.123 16.7478 180.785 15.8528C182.49 14.9152 184.45 14.4464 186.667 14.4464C191.568 14.4464 195.041 16.3429 197.087 20.1361C198.238 18.3887 199.772 17.0035 201.69 15.9807C203.65 14.9578 205.781 14.4464 208.083 14.4464C212.217 14.4464 215.392 15.6823 217.608 18.1543C219.824 20.6262 220.933 24.2488 220.933 29.0222V46.9223H212.75V29.7893C212.75 27.0617 212.217 24.9734 211.151 23.5243C210.129 22.0752 208.53 21.3507 206.357 21.3507C204.141 21.3507 202.351 22.1605 200.987 23.78C199.666 25.3996 199.005 27.6584 199.005 30.5565V46.9223H190.822V29.7893C190.822 27.0617 190.289 24.9734 189.224 23.5243C188.158 22.0752 186.517 21.3507 184.301 21.3507C182.128 21.3507 180.359 22.1605 178.995 23.78C177.674 25.3996 177.013 27.6584 177.013 30.5565V46.9223H168.83Z" fill="#1A1A1A"/>
<path d="M240.273 47.6895C237.076 47.6895 234.242 47.0075 231.77 45.6437C229.298 44.2799 227.359 42.362 225.952 39.8901C224.546 37.4182 223.843 34.5627 223.843 31.3236C223.843 28.0419 224.525 25.1225 225.889 22.5654C227.295 20.0082 229.213 18.0264 231.642 16.62C234.114 15.1709 237.012 14.4464 240.336 14.4464C243.448 14.4464 246.197 15.1283 248.583 16.4921C250.97 17.8559 252.824 19.7312 254.145 22.1179C255.509 24.4619 256.191 27.083 256.191 29.9811C256.191 30.4499 256.17 30.9401 256.127 31.4515C256.127 31.9629 256.106 32.4957 256.063 33.0497H231.962C232.132 35.5216 232.985 37.4608 234.519 38.8673C236.096 40.2737 237.992 40.9769 240.209 40.9769C241.871 40.9769 243.256 40.6146 244.364 39.8901C245.515 39.123 246.367 38.1427 246.921 36.9494H255.232C254.635 38.9525 253.634 40.7851 252.227 42.4473C250.863 44.0668 249.159 45.3454 247.113 46.283C245.11 47.2206 242.83 47.6895 240.273 47.6895ZM240.336 21.095C238.333 21.095 236.565 21.6704 235.03 22.8211C233.496 23.9292 232.516 25.634 232.09 27.9354H247.88C247.752 25.8471 246.985 24.1849 245.579 22.9489C244.172 21.713 242.425 21.095 240.336 21.095Z" fill="#1A1A1A"/>
</svg>
